HIERARCHY
ROOT joint_0
{
	OFFSET 0.000000 0.000000 0.000000
	CHANNELS 6 Xposition Yposition Zposition Zrotation Yrotation Xrotation 
	JOINT joint_1
	{
		OFFSET 1.363060 -1.794630 0.839290
		CHANNELS 3 Zrotation Yrotation Xrotation
		JOINT joint_2
		{
			OFFSET 2.448110 -6.726130 0.000000
			CHANNELS 3 Zrotation Yrotation Xrotation
			JOINT joint_3
			{
				OFFSET 2.562200 -7.039590 0.000000
				CHANNELS 3 Zrotation Yrotation Xrotation
				JOINT joint_4
				{
					OFFSET 0.157640 -0.433110 2.322550
					CHANNELS 3 Zrotation Yrotation Xrotation
					End Site
					{
						OFFSET 0.000000 0.000000 0.000000
					}
				}
			}
		}
	}
	JOINT joint_5
	{
		OFFSET -1.305520 -1.794630 0.839290
		CHANNELS 3 Zrotation Yrotation Xrotation
		JOINT joint_6
		{
			OFFSET -2.542530 -6.985550 0.000000
			CHANNELS 3 Zrotation Yrotation Xrotation
			JOINT joint_7
			{
				OFFSET -2.568260 -7.056230 0.000000
				CHANNELS 3 Zrotation Yrotation Xrotation
				JOINT joint_8
				{
					OFFSET -0.164730 -0.452590 2.363150
					CHANNELS 3 Zrotation Yrotation Xrotation
					End Site
					{
						OFFSET 0.000000 0.000000 0.000000
					}
				}
			}
		}
	}
	JOINT joint_9
	{
		OFFSET 0.028270 2.035590 -0.193380
		CHANNELS 3 Zrotation Yrotation Xrotation
		JOINT joint_10
		{
			OFFSET 0.056720 2.048850 -0.042750
			CHANNELS 3 Zrotation Yrotation Xrotation
			JOINT joint_11
			{
				OFFSET -0.054170 1.746240 0.172020
				CHANNELS 3 Zrotation Yrotation Xrotation
				JOINT joint_12
				{
					OFFSET 0.104070 1.761360 -0.123970
					CHANNELS 3 Zrotation Yrotation Xrotation
					End Site
					{
						OFFSET 0.000000 0.000000 0.000000
					}
				}
			}
			JOINT joint_13
			{
				OFFSET 3.362410 1.200890 -0.311210
				CHANNELS 3 Zrotation Yrotation Xrotation
				JOINT joint_14
				{
					OFFSET 4.983000 -0.000000 -0.000000
					CHANNELS 3 Zrotation Yrotation Xrotation
					JOINT joint_15
					{
						OFFSET 3.483560 -0.000000 -0.000000
						CHANNELS 3 Zrotation Yrotation Xrotation
						JOINT joint_16
						{
							OFFSET 0.000000 0.000000 0.000000
							CHANNELS 3 Zrotation Yrotation Xrotation
							End Site
							{
								OFFSET 0.000000 0.000000 0.000000
							}
						}
					}
				}
			}
			JOINT joint_17
			{
				OFFSET -3.136600 1.374050 -0.404650
				CHANNELS 3 Zrotation Yrotation Xrotation
				JOINT joint_18
				{
					OFFSET -5.241900 -0.000000 -0.000000
					CHANNELS 3 Zrotation Yrotation Xrotation
					JOINT joint_19
					{
						OFFSET -3.444170 -0.000000 -0.000000
						CHANNELS 3 Zrotation Yrotation Xrotation
						JOINT joint_20
						{
							OFFSET 0.000000 0.000000 0.000000
							CHANNELS 3 Zrotation Yrotation Xrotation
							End Site
							{
								OFFSET 0.000000 0.000000 0.000000
							}
						}
					}
				}
			}
		}
	}
}
MOTION
Frames: 7
Frame Time: 0.031667
0.383414 16.863363 -1.810240 -1.405944 0.763194 0.967095 -20.480548 1.188656 0.758551 0.048331 1.931197 3.657492 -1.005341 2.462449 -1.967103 0.007208 -1.446906 -3.836039 22.657059 0.702042 1.185483 -1.601468 -3.023916 7.223992 0.103471 -2.246874 -6.155969 0.428451 0.323823 -0.920193 1.977108 0.873797 -9.174792 0.536716 -0.517089 9.533441 2.009159 0.496721 16.660872 1.726645 -1.254326 6.625489 -27.474397 -5.844377 4.892821 23.240449 -19.566549 -21.001746 3.185018 0.822360 -1.190827 -6.569452 -0.008695 -0.011775 23.163664 4.290310 0.555104 -33.259282 24.255793 -19.953756 -3.948762 -3.854602 -1.928888 6.517421 -0.015535 0.001308 
0.383318 16.859610 -1.817252 -1.379972 0.747692 0.969901 -22.572150 2.655859 2.390973 0.583690 -0.211783 1.011378 -1.442574 1.830644 -2.631545 0.175239 -1.037075 -2.683384 23.991261 0.087287 1.413246 -1.044134 -2.041963 4.919858 0.148838 -1.625355 -6.608400 0.462471 0.082353 -0.298788 2.053548 1.024224 -10.814301 -0.256816 -0.980498 9.947022 2.447688 0.926362 18.089239 3.139965 -1.214119 7.464153 -24.648116 -6.201581 1.673003 24.289478 -18.994879 -22.674145 3.425325 0.909104 2.259742 -6.510880 -0.010913 -0.012042 21.031810 4.162468 -0.669505 -33.007084 24.565059 -21.063497 -4.272189 -4.495882 -1.261812 6.455894 -0.015968 0.001694 
0.359751 16.856756 -1.922252 -1.278687 2.231196 1.264987 -21.896598 3.786555 3.336111 -0.779861 -0.848542 -0.626190 -1.896132 1.161519 -1.604665 0.252260 -0.933958 -2.420090 25.508521 -0.531564 1.515343 -1.278679 -1.996328 3.660569 0.132385 -1.720334 -6.297953 0.558232 -0.200987 0.411694 1.870776 1.510944 -11.864649 1.549810 -1.542485 11.909696 1.781625 1.423404 18.464380 4.535059 -1.341204 8.294753 -22.163653 -6.763825 -0.221249 23.165316 -19.591638 -22.788866 4.634093 1.140886 2.782965 -6.459199 -0.012364 -0.011108 18.764229 4.776780 -1.638263 -32.402448 24.878949 -22.284913 -4.656638 -4.893944 -0.832055 6.400536 -0.015472 0.001560 
0.356616 16.846096 -1.948889 -0.875224 1.924792 0.723241 -20.920840 4.070309 1.407646 0.158988 -0.052801 -2.271106 -1.124633 0.937205 -1.713877 0.295830 -1.023213 -2.740761 25.369218 -1.016267 1.689692 -1.296344 -1.812146 2.090663 0.195843 -0.907987 -6.430291 0.656361 -0.473434 1.095868 3.540327 1.598379 -12.283828 1.655617 -1.241572 14.059655 2.034250 1.220841 19.587751 5.753905 -1.708653 8.585291 -20.031632 -6.841596 -0.542468 22.787231 -19.726459 -23.272937 5.145579 1.541346 1.408671 -6.414660 -0.014347 -0.011371 17.062880 4.719833 -1.623970 -32.368652 24.507415 -23.748315 -5.771943 -5.302526 -0.215185 6.353213 -0.015755 0.001226 
0.352688 16.855104 -1.909324 -1.206381 1.764283 0.913657 -21.078814 5.376278 1.519610 -0.232394 -0.155939 -1.880362 -1.440618 1.328999 -2.058539 0.332267 -1.120740 -3.091128 25.227821 -1.187443 1.919526 -0.180201 -1.722904 2.403220 -0.430388 -0.030302 -5.730846 0.733890 -0.648910 1.527395 2.657764 1.943191 -12.247700 0.963759 -0.577685 15.436704 0.741634 0.734318 20.143749 6.823641 -2.262861 8.340306 -18.116020 -6.229200 -0.047727 22.316222 -19.973403 -24.208624 5.276255 2.082713 0.883786 -6.382403 -0.015558 -0.012178 16.210858 5.009825 -2.403515 -32.497391 24.586220 -25.015892 -6.813736 -5.487353 0.003824 6.318349 -0.015934 -0.000698 
0.353326 16.855556 -1.907733 -1.240121 1.724975 0.923689 -21.377768 5.986420 1.577927 -0.883370 -0.155935 -2.263980 -1.648563 0.146753 -1.646381 0.354635 -1.133807 -3.182699 25.329553 -1.388180 2.394176 -0.062832 -1.775382 1.328477 -0.264619 0.287807 -5.645805 0.793103 -0.775940 1.827438 3.135208 2.311048 -12.158301 1.470161 -0.604426 15.538914 -0.160023 0.132366 20.994576 7.741184 -2.715144 8.015461 -17.213680 -6.145433 -1.040209 22.083482 -19.351912 -24.306859 5.538367 2.472566 0.643900 -6.350954 -0.016948 -0.011630 15.345666 4.656887 -3.218458 -33.216364 24.340523 -26.095597 -7.659323 -5.767429 -0.239148 6.283975 -0.013807 -0.003347 
0.353497 16.856457 -1.906577 -1.280150 1.729442 0.936999 -22.105363 6.614355 1.611274 -0.826693 0.377607 -3.139386 -2.118061 0.299727 -1.390531 0.401644 -1.034867 -2.946581 25.218167 -1.230911 2.930338 -0.261504 -1.584527 1.584449 -0.450741 0.230129 -5.368531 0.854069 -0.825013 1.846501 2.433199 2.586955 -13.053630 1.332398 -0.925940 17.023879 -0.098389 -0.023321 22.195154 8.445269 -2.947773 8.046370 -16.141552 -6.395625 -1.815700 21.282924 -18.513634 -23.727367 5.148657 2.853270 1.349605 -6.329319 -0.018702 -0.011654 14.246150 4.964209 -3.478726 -33.061186 23.837929 -26.704769 -8.425471 -6.154727 0.236183 6.260380 -0.011591 -0.005072 
